<?xml version="1.0" encoding="utf-8"?>
<!-- Generator: Adobe Illustrator 15.1.0, SVG Export Plug-In . SVG Version: 6.00 Build 0)  -->
<!DOCTYPE svg PUBLIC "-//W3C//DTD SVG 1.1//EN" "http://www.w3.org/Graphics/SVG/1.1/DTD/svg11.dtd">
<svg version="1.1" id="Ebene_1" xmlns="http://www.w3.org/2000/svg" xmlns:xlink="http://www.w3.org/1999/xlink" x="0px" y="0px"
	 width="231px" height="129.299px" viewBox="0 0 231 129.299" enable-background="new 0 0 231 129.299" xml:space="preserve">
<g>
	<g>
		<polygon fill="#0F2E35" points="129.036,125.159 130.709,125.159 127.141,94.145 125.467,94.145 129.036,125.159 		"/>
		<polygon fill="#0F2E35" points="110.137,125.159 108.463,125.159 112.032,94.145 113.706,94.145 110.137,125.159 		"/>
		<polygon fill="#0F2E35" points="27.439,125.159 29.112,125.159 25.545,94.145 23.869,94.145 27.439,125.159 		"/>
		<polygon fill="#0F2E35" points="8.54,125.159 6.866,125.159 10.434,94.145 12.107,94.145 8.54,125.159 		"/>
		<path fill="#6E724F" d="M118.411,100.449H10.188c-3.105,0-5.771-2.517-5.953-5.623L2.572,66.521
			c-0.182-3.106,2.188-5.624,5.294-5.624H116.09c3.105,0,5.771,2.517,5.953,5.624l1.662,28.304
			C123.887,97.932,121.516,100.449,118.411,100.449L118.411,100.449z"/>
		<path fill="#858C62" d="M122.715,100.449H14.491c-3.106,0-5.772-2.517-5.954-5.623L6.875,66.521
			c-0.182-3.106,2.189-5.624,5.294-5.624h108.224c3.105,0,5.771,2.517,5.955,5.624l1.66,28.304
			C128.19,97.932,125.821,100.449,122.715,100.449L122.715,100.449z"/>
		<path fill="#6E724F" d="M128.202,100.707H8.603c-2.223,0-4.13-1.807-4.261-4.037l0,0c-0.131-2.23,1.565-4.038,3.788-4.038h119.599
			c2.223,0,4.129,1.808,4.26,4.038l0,0C132.118,98.9,130.422,100.707,128.202,100.707L128.202,100.707z"/>
		<path fill="#858C62" d="M128.19,100.707H13.486c-2.229,0-4.143-1.807-4.274-4.037l0,0c-0.13-2.23,1.571-4.038,3.801-4.038h114.703
			c2.23,0,4.145,1.808,4.275,4.038l0,0C132.122,98.9,130.42,100.707,128.19,100.707L128.19,100.707z"/>
		<g>
			<path fill="#F1A392" d="M111.84,56.518l-6.797,8.648c-0.504,0.287-9.977,5.284-9.977,5.284s-1.701,0.955-2.747,1.464l0,0
				c0,0,0.456,1.154,0.907,2.326c3.91-1.473,15.202-5.742,15.704-6.11c0.512-0.378,8.221-9.541,8.221-9.541L111.84,56.518
				L111.84,56.518z"/>
			<path fill="#706D5A" d="M111.911,52.489c0,0-1.311,0.242-3.529,4.028c-2.07,3.533-3.908,7.497-3.908,7.497l3.719,3.879
				c0,0,2.732-8.317,2.965-8.585S111.911,52.489,111.911,52.489L111.911,52.489z"/>
			<path fill="#F1A391" d="M99.418,118.958c0,0,0.201,3.31,0.201,3.315c0.074,0.42,0.364,1.459,0.364,1.841
				c0,1.435-6.814-1.219-5.286-1.854c0.137-0.057,0.861-0.492,0.906-0.98c0.07-0.754,0.248-2.274,0.248-2.274L99.418,118.958
				L99.418,118.958z"/>
			<path fill="#0F2E35" d="M94.713,122.247c0,0,1.6,0.439,2.419,0.549s1.899-0.814,2.479-0.564c0.639,0.274,0.612,2.747,0.612,2.747
				s-8.576,0.704-10.989-0.023C88.277,124.666,91.443,123.27,94.713,122.247L94.713,122.247z"/>
			<path fill="#F1A391" d="M87.853,118.958c0,0,0.2,3.31,0.2,3.315c0.074,0.42,0.363,1.459,0.363,1.841
				c0,1.435-6.813-1.219-5.287-1.854c0.139-0.057,1.17-0.24,1.217-0.728c0.068-0.753,0.2-3.079,0.2-3.079L87.853,118.958
				L87.853,118.958z"/>
			<path fill="#0F2E35" d="M83.146,122.247c0,0,1.6,0.439,2.419,0.549c0.818,0.109,1.899-0.814,2.479-0.564
				c0.638,0.274,0.612,2.747,0.612,2.747s-8.579,0.704-10.991-0.023C76.711,124.666,79.876,123.27,83.146,122.247L83.146,122.247z"
				/>
			<path fill="#16385B" d="M109.981,84.249l-16.286,0.07c0,0-7.357-0.193-8.521,2.351c-1.162,2.543-1.24,32.707-1.24,32.707
				s3.849,0.215,4.051,0l4.854-16.829c0.474-1.639,0.633-3.354,0.475-5.052l-0.422-4.5l6.72,0.344c0,0,7.619-0.121,10.13-2.647
				C112.252,88.165,109.981,84.249,109.981,84.249L109.981,84.249z"/>
			<path fill="#345389" d="M121.022,82.452l-17.512,1.074c0,0-7.538,0.613-8.7,3.155c-1.164,2.546,0.389,32.695,0.389,32.695
				s4.43,0.191,4.421,0c-0.011-0.229,2.089-12.411,3.089-17.066c0.318-1.477,0.43-2.991,0.332-4.498l-0.258-3.943
				c0,0,17.98-0.356,18.789-1.17C124.084,90.172,121.022,82.452,121.022,82.452L121.022,82.452z"/>
			<path fill="#3C3A2B" d="M111.911,52.489c2.537-0.218,7.084,0.351,7.084,0.351s2.898,0.138,3.766,0.527
				c1.277,0.575,3.764,1.239,2.768,7.103c-0.713,4.195-2.666,18.101-3.662,25.15l-17.393-2.091
				C108.149,69.586,109.506,52.695,111.911,52.489L111.911,52.489z"/>
			<path fill="#F1A391" d="M117.717,47.378l1.635,5.493c0,0-2.781,3.168-4.709,2.86c-1.617-0.258-0.865-2.573-0.865-2.573
				s0.396-3.114-0.082-4.647C113.219,46.976,117.717,47.378,117.717,47.378L117.717,47.378z"/>
			<path fill="#F17458" d="M117.053,49.298c-0.736,0.514-1.92,1.146-3.121,1.453c0.004-0.801-0.049-1.641-0.236-2.241
				c-0.221-0.708,0.619-1.003,1.588-1.116c1.277-0.066,2.434-0.016,2.434-0.016l0.312,1.056
				C117.831,48.737,117.299,49.128,117.053,49.298L117.053,49.298z"/>
			<path fill="#F1A391" d="M118.098,38.79c0.127-0.055,1.465,6.661-0.15,8.633c-1.615,1.973-4.951,2.794-6.254,1.402
				c-1.441-1.54-1.83-8.824,0.742-10.91C115.008,35.829,118.098,38.79,118.098,38.79L118.098,38.79z"/>
			<path fill="#16385B" d="M113.235,34.227c2.107,0.294,3.535,1.481,4.064,1.993c0.953,0.052,2.27,0.494,3.732,2.607
				c1.803,2.598,0.785,5.666-1.021,7.252c-1.807,1.587-1.674,3.281-1.674,3.281l-0.355-0.858c-0.264-0.65-0.398-1.349-0.367-2.051
				c0.018-0.421,0.08-0.879,0.229-1.261c0.395-1.009-1.082-1.57-1.537-2.36c-0.35-0.609-0.455-2.044-1.01-3.052l-0.633-0.756
				c0,0-1.414-0.964-2.713-0.585C110.651,38.815,110.53,33.85,113.235,34.227L113.235,34.227z"/>
			<path fill="#F1A391" d="M116.469,44.029c0.039,0.828,0.455,1.48,0.934,1.459s0.834-0.71,0.797-1.538
				c-0.039-0.827-0.457-1.48-0.936-1.458C116.788,42.514,116.432,43.203,116.469,44.029L116.469,44.029z"/>
			<path fill="#FFFFFF" d="M113.776,46.115l-2.619,0.029c0,0,0.072,0.994,1.223,1.015C113.786,47.184,113.776,46.115,113.776,46.115
				L113.776,46.115z"/>
			<path fill="#F1A392" d="M112.239,75.724c-0.188-0.12-0.41-0.533-1.85-1.508c-0.416-0.282-1.127-0.323-1.127-0.323
				s-0.877-0.044-0.943,0.161c-0.068,0.206,0.076,0.438,0.232,0.509c0.154,0.071,0.506,0.045,0.662,0.117
				c0.154,0.071,0.359,0.579,0.361,0.777c0.004,0.199-2.572-0.019-2.572-0.019s-0.736-0.098-0.979-0.149
				c-0.207-0.044-0.814-0.227-0.814-0.227s-0.881-0.21-0.928,0.07c-0.029,0.167,0.701,0.574,1.467,0.85
				c0.822,0.295,1.686,0.456,1.68,0.545c-0.012,0.208-1.43,0.123-1.43,0.123s-0.658-0.196-0.963-0.185
				c-0.385-0.189-1.088-0.308-1.121,0.038c-0.006,0.063,0.902,0.503,0.902,0.503s0.631,0.168,0.928,0.266
				c0.521,0.176,1.33,0.189,1.691,0.279c0.301,0.072,0.184,0.146,0.199,0.182c0.012,0.023-0.4-0.012-0.965-0.053
				c-0.283-0.021-0.605,0.018-0.934-0.059c-0.303-0.07-0.732-0.107-0.99-0.121c-0.732-0.043-0.627,0.434,0.051,0.586
				c0.258,0.059,0.539,0.121,0.824,0.182c1.109,0.238,2.162,0.211,2.178,0.334c0.021,0.158-1.9,0.088-1.9,0.088
				s-1.047,0.264-0.045,0.488c1.16,0.262,2.09,0.215,2.131,0.211c0.277-0.031,1.287,0.162,2.234-0.098
				c0.697-0.193,1.689-0.498,2.164-0.645L112.239,75.724L112.239,75.724z"/>
			<path fill="#F1A392" d="M92.5,71.809c-0.218-0.047-0.57-0.357-2.257-0.776c-0.487-0.12-1.169,0.087-1.169,0.087
				s-0.838,0.262-0.831,0.478c0.009,0.217,0.224,0.384,0.396,0.397c0.171,0.013,0.488-0.132,0.66-0.118
				c0.171,0.013,0.537,0.419,0.61,0.604c0.072,0.187-2.421,0.873-2.421,0.873s-0.725,0.163-0.97,0.197
				c-0.21,0.03-0.844,0.069-0.844,0.069s-0.899,0.105-0.847,0.386c0.032,0.166,0.857,0.296,1.67,0.29
				c0.875-0.008,1.74-0.154,1.766-0.069c0.061,0.201-1.299,0.609-1.299,0.609s-0.686,0.044-0.968,0.16
				c-0.428-0.046-1.126,0.086-1.038,0.424c0.016,0.062,1.02,0.159,1.02,0.159s0.651-0.059,0.963-0.069
				c0.551-0.016,1.312-0.283,1.684-0.324c0.309-0.034,0.225,0.076,0.25,0.101c0.02,0.021-0.379,0.129-0.924,0.284
				c-0.273,0.079-0.563,0.228-0.896,0.27c-0.309,0.037-0.725,0.152-0.972,0.228c-0.703,0.213-0.438,0.624,0.25,0.534
				c0.263-0.035,0.547-0.075,0.836-0.115c1.122-0.162,2.102-0.55,2.159-0.44c0.075,0.143-1.753,0.739-1.753,0.739
				s-0.89,0.61,0.127,0.476c1.18-0.158,2.035-0.521,2.072-0.54c0.249-0.124,1.266-0.293,2.062-0.864
				c0.588-0.422,1.642-1.55,2.035-1.851L92.5,71.809L92.5,71.809z"/>
			<path fill="#F1A391" d="M127.604,64.014l-4.764,1.462c0,0,0.898,4.112,0.91,4.604c0,0-8.115,4.297-11.512,5.645l0.094,2.942
				c0.664-0.242,1.197-0.496,1.527-0.602c0.648-0.207,11.029-3.36,11.029-3.36s4.09-1.442,4.225-2.222
				C129.249,71.703,127.604,64.014,127.604,64.014L127.604,64.014z"/>
			<path fill="#706D5A" d="M128.983,66.761c0,0-2.285-9.217-3.527-11.582c-1.24-2.364-3.916-2.665-5.652-1.061
				c-1.734,1.604,3.248,13.896,3.248,13.896L128.983,66.761L128.983,66.761z"/>
		</g>
		<path fill="#F1A391" d="M60.762,115.876c0,0,0.361,3.961,0.124,5.253c-0.032,0.173-0.103,0.393-0.185,0.634
			c-0.246,0.724,0.428,2.937,0.428,2.937l9.027,0.032c0.492,0.002,0.162-0.31-0.237-0.595c-0.654-0.469-1.183-0.776-3.267-1.751
			c-0.137-0.064-0.633-0.371-0.812-0.478c-0.454-0.268-0.911-0.693-1.305-1.122c-0.657-0.711-0.757-4.203-0.757-4.203
			L60.762,115.876L60.762,115.876z"/>
		<path fill="#C49E79" d="M65.84,121.909c-2.379,0.641-4.149,0.247-5.141-0.138c-0.247,0.723-0.708,3.168-0.433,3.168
			c2.263,0,4.18,0.429,10.667,0.326c0.23-0.003,0.203-0.802,0.051-0.978C70.566,123.801,66.019,122.014,65.84,121.909L65.84,121.909
			z"/>
		<path fill="#F1A391" d="M70.979,109.308c0,0,1.975,3.453,2.294,4.728c0.043,0.171,0.069,0.399,0.096,0.653
			c0.077,0.761,1.606,2.492,1.606,2.492l8.227-3.716c0.449-0.203,0.021-0.352-0.463-0.444c-0.79-0.154-1.397-0.215-3.699-0.237
			c-0.15-0.001-0.729-0.073-0.936-0.096c-0.523-0.057-1.116-0.254-1.652-0.479c-0.894-0.374-2.434-3.51-2.434-3.51L70.979,109.308
			L70.979,109.308z"/>
		<path fill="#16385B" d="M40.1,43.927c-1.084-2.196-3.766-3.442-6.212-3.445c-7.767-0.009-8.753,9.981-13.696,13.835
			c-1.482,1.156-3.137,2.103-4.549,3.338c-0.021,0.832,0.111,1.653,0.373,2.402c0.309,0.82,0.717,1.565,1.2,2.253l2.093-1.212
			L18.4,63.74c1.864,1.939,4.35,3.371,6.771,4.705c3.38,1.813,6.979,2.588,10.643,2.755c1.364-2.755,2.327-5.812,3.377-8.66
			c1.257-3.414,2.311-6.967,2.466-10.611C41.773,49.187,41.358,46.479,40.1,43.927L40.1,43.927z"/>
		<path fill="#C49E79" d="M78.103,112.688c-1.899,1.57-3.672,1.947-4.733,2.008c0.076,0.761,0.67,3.177,0.921,3.062
			c2.06-0.938,3.981-1.345,9.839-4.13c0.209-0.101-0.146-0.813-0.357-0.911C83.189,112.448,78.31,112.71,78.103,112.688
			L78.103,112.688z"/>
		<path fill="#F1A391" d="M54.236,90.655c-0.562-0.089-1.927-1.067-2.408-1.155c-0.373-0.07-1.182-0.191-1.525-0.242
			c-0.421-1.574-2.561-10.153-2.801-12.669c-0.26-2.725-2.186-14.512-2.186-14.512l-4.99,0.907c0,0,2.073,9.068,2.646,13.466
			c0.491,3.776,4.635,12.267,5.16,13.163c0.002,0.021,0.002,0.043,0.003,0.065c0.08,1.333,0.722,0.889,0.722,0.889l1.045,0.267
			c0,0,3.69,0.354,3.932,0.444C54.076,91.366,54.798,90.743,54.236,90.655L54.236,90.655z"/>
		<path fill="#EAB054" d="M41.468,55.841c3.526,1.196,5.03,10.13,5.03,10.13s-5.533,1.544-6.951,0.734c0,0-1.609-7.132-2.186-6.883
			L41.468,55.841L41.468,55.841z"/>
		<path fill="#F2CC7F" d="M37.621,55.159L37.621,55.159L37.621,55.159c0.092,0.001,0.223-0.031,0.355-0.073
			c0.655-0.117,2.377,0.285,3.491,0.755c1.354,0.571,2.173,5.616,2.048,11.1c-0.051,0.837-0.682,13.751-0.746,13.792
			c-1.617,1.041-11.25,1.549-11.92,0.664c-0.67-0.887-1.187-16.196-1.513-16.733l-0.642-9.363
			C29.826,54.963,35.887,55.146,37.621,55.159L37.621,55.159z"/>
		<path fill="#F1A391" d="M33.668,51.71c0,0,0.627,3.249,0.502,4.53c-0.125,1.281,0.479,5.411,3.191,5.424s0.515-5.25,0.26-6.506
			c-0.256-1.256-0.316-5.142-0.316-5.142L33.668,51.71L33.668,51.71z"/>
		<path fill="#F17458" d="M37.361,51.967c-0.043-1.063-0.057-1.95-0.057-1.95l-3.637,1.694c0,0,0.128,0.665,0.258,1.511
			C35.518,53.541,36.671,52.952,37.361,51.967L37.361,51.967z"/>
		<path fill="#F1A391" d="M32.338,42.746c0,0-1.4,0.778-1.913,2.463s0.071,6.034,3.69,7.083c3.621,1.049,5.189-2.394,4.444-5.086
			C37.812,44.514,36.191,41.104,32.338,42.746L32.338,42.746z"/>
		<path fill="#F1A391" d="M39.012,46.162c-0.071,0.723-0.47,1.275-0.891,1.234c-0.422-0.042-0.706-0.661-0.635-1.384
			s0.47-1.275,0.891-1.234C38.799,44.819,39.082,45.439,39.012,46.162L39.012,46.162z"/>
		<path fill="#16385B" d="M32.762,42.526c0,0-0.654,4.851-2.224,5.726c-1.567,0.875-0.911,3.027-0.911,3.027
			s-1.422-4.997-0.184-6.602C30.685,43.073,32.762,42.526,32.762,42.526L32.762,42.526z"/>
		<path fill="#F1A391" d="M31.467,48.948c0.426,0.632,0.424,1.378-0.003,1.665s-1.118,0.008-1.544-0.625
			c-0.426-0.631-0.424-1.376,0.004-1.664C30.351,48.037,31.041,48.316,31.467,48.948L31.467,48.948z"/>
		<path fill="#FFFFFF" d="M36.742,49.218l-2.551,0.642c0,0,0.305,0.969,1.436,0.72C37.006,50.276,36.742,49.218,36.742,49.218
			L36.742,49.218z"/>
		<path fill="#F1A391" d="M13.821,92.008c0.042-0.117,0.144-0.123,0.248-0.129c1.007-0.062,2.015-0.141,3.011-0.32
			c0.166-0.031,0.328-0.074,0.48-0.141c0.275-0.119,0.549-0.126,0.833-0.058c0.153,0.039,0.308,0.042,0.465,0.036
			c0.508-0.019,1.939-0.557,2.679-0.71c0.17-0.034,0.301-0.168,0.338-0.336c0.64-2.916,2.005-9.456,2.141-11.597
			c0.176-2.739,1.674-15.105,1.674-15.105l5.086,1.248c0,0-1.789,9.149-2.225,13.572c-0.336,3.416-3.509,10.741-4.509,12.849
			c-0.472,1.562-1.64,1.642-1.909,1.685c-0.154,0.022-0.295,0.104-0.393,0.225c-0.178,0.222-0.383,0.414-0.619,0.574
			c-0.176,0.118-0.309,0.27-0.42,0.445c-0.205,0.319-0.387,0.653-0.565,0.987c-0.12,0.221-0.249,0.294-0.437,0.249
			c-0.202-0.049-0.303-0.194-0.307-0.438c-0.005-0.36,0.1-0.689,0.271-1.003c0.16-0.293,0.142-0.46-0.062-0.719
			c-0.119-0.149-0.24-0.294-0.393-0.409c-0.156-0.118-0.318-0.206-0.523-0.171c-0.358,0.102-0.723,0.185-1.093,0.237l-0.302,0.074
			c-0.012,0.001-0.166,0.04-0.166,0.04c-0.026,0.006-0.561,0.083-0.744,0.089c-0.148,0.005-0.387,0.022-0.59,0.039
			c-0.184,0.014-0.576-0.07-0.59-0.07c-0.18,0.001-0.34-0.058-0.477-0.173c-0.057-0.048-0.111-0.102-0.086-0.186
			c0.023-0.078,0.083-0.113,0.162-0.129c0.119-0.026,0.742-0.122,0.734-0.147c-0.186,0.006-0.768,0.01-0.955,0.011
			c-0.25,0.001-0.469-0.081-0.648-0.262C13.861,92.196,13.779,92.126,13.821,92.008L13.821,92.008z"/>
		<path fill="#F2CC7F" d="M28.832,55.267c-2.489-0.453-4.742,10.704-4.742,10.704s5.533,1.544,6.951,0.734
			c0,0,1.608-7.132,2.186-6.883L28.832,55.267L28.832,55.267z"/>
		<path fill="#C49E79" d="M42.9,79.815v2.035l19.138,4.026l4.75,14.269l-2.647-1.807l0.613,21.974l-4.026,0.027
			c0,0-6.975-18.436-4.687-27.708l-21.182,0.324c0,0-9.6-3.706-4.646-14.885L42.9,79.815L42.9,79.815z"/>
		<path fill="#D0A67E" d="M42.9,81.85c0,0,19.854,0.135,21.263,1.219c1.411,1.086,11.989,28.07,11.989,28.07l-4.613,1.725
			c0,0-9.181-15.31-9.666-16.401c-0.486-1.093-4.042-9.075-5.398-9.889C55.117,85.757,42.9,81.85,42.9,81.85L42.9,81.85z"/>
		<g>
			<path fill="#1E5E4B" d="M204.647,110.659h0.541c0.18-1.822,0.529-3.836,1.152-5.941c2.361-7.961,1.326-8.991,5.309-13.969
				c3.98-4.978,4.275-15.297,4.275-15.297s1.918-11.722,0-16.882c-1.918-5.16-2.064-10.32-6.707-15.775c0,0-0.885,7.298-1.99,10.615
				c-1.105,3.317-2.156,6.487-1.338,14.45c0.82,7.961,1.33,8.625,1.518,10.688c0.188,2.064-0.107,10.765,0.336,12.201
				c0.441,1.438-2.58,11.39-2.803,15.666C204.874,107.7,204.754,109.164,204.647,110.659L204.647,110.659z"/>
			<path fill="#3C8F7C" d="M206.342,110.659c0.77-1.772,2.121-3.533,4.488-4.591c6.191-2.764,10.369-2.702,13.244-9.338
				s2.875-15.702,3.871-17.581c0,0-2.654-0.443-5.309,4.311c-2.652,4.756-4.453,8.294-5.986,11.059s-3.744,1.99-5.623,4.092
				c-1.576,1.761-3.031,5.857-3.584,7.936c-0.18,0.676-0.441,1.326-0.783,1.935c-0.316,0.553-0.684,1.227-0.904,1.704
				c-0.049,0.107-0.098,0.27-0.146,0.475H206.342L206.342,110.659z"/>
			<path fill="#1E5E4B" d="M188.87,79.209c-0.441,5.678,3.17,5.234,3.318,8.848c0.146,3.612,4.865,9.731,7.051,14.081
				c1.137,2.262,1.557,5.721,1.697,8.521h1.756c-0.68-7.085-3.553-12.016-5.271-15.967c-2.211-5.087-2.543-7.409-0.664-11.389
				c1.881-3.982-0.883-14.266,1.793-18.851c2.676-4.584,1.305-11.781,0.689-14.545c-0.615-2.765,0.062-4.645,0.615-7.559
				c0.553-2.914-0.615-7.148-0.615-7.148c-0.1,3.612-2.85,8.551-4.84,11.721s-5.75,11.795-5.309,15.703
				c0.443,3.906,0.223,4.202,0.223,4.202C187.911,72.06,189.313,73.535,188.87,79.209L188.87,79.209z"/>
			<path fill="#3C8F7C" d="M199.407,106.045c0.225,0.677,0.949,2.407,1.611,4.613h1.078c-0.488-2.808-1.336-6.064-2.764-7.931
				c-2.875-3.76-8.625-5.383-9.287-8.11c-0.664-2.728,0.072-10.91-4.129-15.48c0,0,0.59,5.088,0,6.452
				c-0.59,1.361-5.604,7.702-2.654,13.01c2.949,5.309,9.584,4.645,11.646,5.824C196.973,105.602,199.038,104.939,199.407,106.045
				L199.407,106.045z"/>
			<path fill="#3C8F7C" d="M196.752,81.565c-0.072,5.455,4.201,7.52,4.129,10.541c-0.074,3.022,0.885,6.269,1.695,8.7
				c0.514,1.54,0.229,5.827,0.139,9.853h1.186c0.299-2.958,0.627-7.225,0.52-9.116c-0.148-2.579,1.031-4.644,1.18-9.141
				c0.146-4.496,1.105-8.552-0.885-14.228c-1.992-5.677-1.623-12.459-9.953-18.725c0,0-1.475,6.635-0.369,10.247
				C195.5,73.309,196.827,76.11,196.752,81.565L196.752,81.565z"/>
			<path fill="#317F6B" d="M196.752,81.565c-0.072,5.455,4.201,7.52,4.129,10.541c-0.074,3.022,0.885,6.269,1.695,8.7
				c0.514,1.54,0.229,5.827,0.139,9.853h0.492c0.068-0.842,0.129-1.37,0.129-1.37l0.248-10.173c0,0-0.492-7.963-1.377-14.449
				c-0.885-6.488-7.445-25.217-7.445-25.217s-1.475,6.635-0.369,10.247C195.5,73.309,196.827,76.11,196.752,81.565L196.752,81.565z"
				/>
			<path fill="#3C3A2B" d="M205.192,106.002h-0.795h-10.623c-0.781,0-1.357,0.729-1.176,1.49l4.162,17.554
				c0.129,0.545,0.615,0.931,1.176,0.931h6.461h0.795h6.461c0.559,0,1.047-0.386,1.176-0.931l4.162-17.554
				c0.182-0.761-0.395-1.49-1.176-1.49H205.192L205.192,106.002z"/>
			<polygon fill="#0F2E35" points="197.913,125.977 199.588,125.977 196.02,94.962 194.344,94.962 197.913,125.977 			"/>
			<polygon fill="#0F2E35" points="179.014,125.977 177.34,125.977 180.909,94.962 182.583,94.962 179.014,125.977 			"/>
			<polygon fill="#0F2E35" points="168.616,125.977 170.29,125.977 166.721,94.962 165.047,94.962 168.616,125.977 			"/>
			<polygon fill="#0F2E35" points="149.717,125.977 148.043,125.977 151.61,94.962 153.284,94.962 149.717,125.977 			"/>
			<path fill="#6E724F" d="M169.881,98.334h22.834c2.676,0,5.068-2.17,5.342-4.848l3.773-36.857c0.273-2.676-1.674-4.845-4.35-4.845
				h-22.834c-2.676,0-5.066,2.169-5.342,4.845l-3.773,36.857C165.256,96.165,167.206,98.334,169.881,98.334L169.881,98.334z"/>
			<path fill="#858C62" d="M163.542,98.334h22.834c2.674,0,5.066-2.17,5.342-4.848l3.773-36.857c0.273-2.676-1.674-4.845-4.35-4.845
				h-22.834c-2.676,0-5.068,2.169-5.342,4.845l-3.773,36.857C158.918,96.165,160.866,98.334,163.542,98.334L163.542,98.334z"/>
			<path fill="#6E724F" d="M160.483,100.033h32.363c2.508,0,4.75-2.032,5.006-4.541l0,0c0.258-2.508-1.568-4.541-4.076-4.541
				h-32.365c-2.508,0-4.748,2.033-5.004,4.541l0,0C156.149,98,157.973,100.033,160.483,100.033L160.483,100.033z"/>
			<path fill="#858C62" d="M152.403,100.033h32.363c2.508,0,4.75-2.032,5.006-4.541l0,0c0.258-2.508-1.568-4.541-4.076-4.541
				h-32.363c-2.508,0-4.75,2.033-5.008,4.541l0,0C148.069,98,149.895,100.033,152.403,100.033L152.403,100.033z"/>
			<path fill="#F48C7F" d="M146.213,62.76c-0.15-0.436,1.967-0.779,2.08-1.219c0.113-0.439-2.67-0.483-2.768-0.871
				c-0.182-0.712,3.053-0.139,2.99-0.472c-0.064-0.333-3.369-1.089-3.01-1.66c0.359-0.57,3.346,1.142,3.438,0.754
				c0.094-0.388-2.92-1.342-2.863-2.192c0.031-0.455,4.941,2.284,5.514,2.039c0.57-0.245-0.605-2.386-0.15-2.701
				c0.455-0.315,1.742,4.348,2.057,4.504c0.312,0.156,6.947,3.974,9.311,4.585c0.289-0.791,2.367-4.983,2.623-5.732
				c1.324,0.949,2.863,1.161,4.23,2.026c-1.002,2.484-4.434,8.594-5.125,8.904c-2.107,0.944-10.225-5.836-11.848-6.998
				c-1.621-1.163-2.553-0.791-3.652-1.16C147.942,62.197,146.364,63.195,146.213,62.76L146.213,62.76z"/>
			<path d="M166.817,42.983c-0.1-2.367,0.25-4.706,1.309-6.91c0.912-1.896,3.166-2.973,5.223-2.975
				c6.531-0.008,7.361,8.62,11.52,11.949c1.27,1.017,2.689,1.845,3.893,2.942c4.438,4.05,2.439,11.546-1.637,15.097
				c-2.828,2.463-7.273,3.864-10.76,1.938c-1.818-1.005-3.199-2.676-4.184-4.508c-1.396-2.599-2.297-5.598-3.291-8.367
				C167.833,49.2,166.948,46.132,166.817,42.983L166.817,42.983z"/>
			<path fill="#D0A67E" d="M169.258,64.778c0,0,4.877-5.001,6.133-7.174c1.254-2.173-0.855-0.759-3.01-1.33
				c-0.816-0.217-0.609-4.999-2.152-3.444c-2.531,2.55-5.713,7.009-5.713,7.009L169.258,64.778L169.258,64.778z"/>
			<path fill="#C49E79" d="M176.192,50.636c0,0,4.377-0.865,6.375,0.804c1.998,1.669-0.428,16.507-0.426,18.966
				c0.002,2.46,1.373,9.409,1.373,9.409s-13.268,2.322-15.375-1.369c0,0-0.6-14.069-0.51-15.837c0.088-1.77,2.057-9.004,2.6-9.779
				S176.192,50.636,176.192,50.636L176.192,50.636z"/>
			<path fill="#F1A391" d="M176.219,43.865c0,0,0.023,0.131,0.064,0.354c0.199,1.068,0.965,4.613,1.48,5.587
				c0.625,1.177-2.137,4.933-4.793,4.474c-0.791-0.137,0.668-3.45,0.598-3.802c-0.135-0.672-0.316-1.588-0.502-2.529
				c-0.105-0.53-0.213-1.068-0.312-1.573c-0.285-1.436-0.516-2.611-0.516-2.611L176.219,43.865L176.219,43.865z"/>
			<path fill="#F17458" d="M176.284,44.219c-0.041-0.223-0.064-0.354-0.064-0.354l-3.98-0.099c0,0,0.23,1.175,0.516,2.611
				c0.1,0.502,0.205,1.037,0.311,1.564c0.613-0.09,1.258-0.388,1.9-0.951c0.701-0.613,1.162-1.35,1.441-2.138
				C176.356,44.601,176.315,44.384,176.284,44.219L176.284,44.219z"/>
			<path fill="#F1A391" d="M173.542,34.833c0,0,1.875-0.217,3.053,1.302c1.176,1.519,2.443,6.214-0.479,8.768
				c-2.924,2.553-5.811-0.337-6.238-3.401C169.448,38.437,169.284,34.722,173.542,34.833L173.542,34.833z"/>
			<path fill="#F1A391" d="M169.014,41.456c0.348,0.677,0.934,1.052,1.307,0.837c0.373-0.214,0.393-0.937,0.043-1.613
				c-0.348-0.677-0.934-1.052-1.307-0.837C168.684,40.057,168.665,40.779,169.014,41.456L169.014,41.456z"/>
			<path d="M173.331,34.331c0,0,2.508,4.465,4.301,4.671c1.793,0.207,2.029,2.58,2.029,2.58s-0.641-5.468-2.418-6.522
				C175.467,34.005,173.331,34.331,173.331,34.331L173.331,34.331z"/>
			<path fill="#F1A391" d="M177.161,40.125c-0.145,0.793,0.148,1.52,0.654,1.624c0.51,0.104,1.039-0.454,1.186-1.247
				c0.145-0.793-0.148-1.52-0.654-1.625C177.836,38.772,177.307,39.331,177.161,40.125L177.161,40.125z"/>
			<path fill="#F48C7F" d="M160.286,113.673c0,0,4.027,4.828,4.055,5.249c0.025,0.42-0.16,5.006-0.639,5.426
				c-0.48,0.42-1.887,0.718-1.436,1.19c0.342,0.356,2.973,0.28,4.717,0.186c0.508-0.029,1.146-4.088,1.348-4.685
				c0.291-0.866,1.004-2.819,0.738-3.423c-0.129-0.294-0.75-0.899-1.625-1.464c-0.918-0.594-4.436-5.486-4.436-5.486
				L160.286,113.673L160.286,113.673z"/>
			<path fill="#C49E79" d="M167.387,116.125c0,0-2.703,7.614-3.762,7.98c-0.281,0.099-1.629,0.346-1.885,0.942
				c-0.076,0.18,0,0.78,0,0.78h5.637c0,0,0.713-3.355,0.994-4.829c0,0,1.492-3.601,1.326-3.929
				C169.532,116.743,167.387,116.125,167.387,116.125L167.387,116.125z"/>
			<path fill="#F1A391" d="M136.167,115.992c0,0-3.289,4.63-3,6.094c0.156,0.786,0.844,1.812,0.449,2.55
				c-0.396,0.737-0.848,0.922-0.848,0.922l-10.258,0.166c-0.559,0.009-0.189-0.351,0.26-0.68c0.738-0.543,1.334-0.9,3.688-2.037
				c0.154-0.074,0.715-0.429,0.916-0.552c0.51-0.312,1.025-0.802,1.467-1.294c0.736-0.818,3.977-7.487,3.977-7.487L136.167,115.992
				L136.167,115.992z"/>
			<path fill="#C49E79" d="M127.374,122.454c2.713,0.694,4.719,0.222,5.842-0.229c0.289,0.817,0.672,1.845,0.469,2.437
				c-0.248,0.724-0.604,0.889-0.916,0.896c-2.479,0.065-9.078,0.154-10.967,0.18c-0.264,0.003-0.41-0.305-0.24-0.507
				C122.03,124.67,127.172,122.578,127.374,122.454L127.374,122.454z"/>
			<path fill="#16385B" d="M148.061,87.429c0,0,4.07,4.649,5.109,5.385c1.039,0.736,11.006,19.091,11.006,19.091l-3.551,2.592
				c0,0-8.908-11.107-13.09-17.048c-3.539-5.023-2.236-4.705-4.314-7.764c-1.146-1.684-0.887-3.959,0.623-5.325
				c0.188-0.17,0.393-0.346,0.615-0.531c3.078-2.566,24.184-5.455,24.184-5.455l13.498,1.322c0,0-11.029,7.733-11.439,7.94
				c-0.412,0.205-15.232,2.367-15.541,2.367S148.061,87.429,148.061,87.429L148.061,87.429z"/>
			<path fill="#345389" d="M183.514,79.815c0,0,2.314,6.946-1.158,10.188c-3.475,3.241-24.107,2.881-30.9,2.881
				c0,0-2.777,7.616-3.086,8.852c-0.309,1.234-13.791,17.187-13.791,17.187l-3.703-2.368c0,0,14.51-28.197,15.641-29.433
				c1.133-1.235,17.291-6.174,21.303-7.307C171.833,78.684,183.514,79.815,183.514,79.815L183.514,79.815z"/>
			<path fill="#FFFFFF" d="M172.411,43.214l2.754-0.142c0,0-0.01,1.049-1.219,1.147C172.471,44.338,172.411,43.214,172.411,43.214
				L172.411,43.214z"/>
			<path fill="#FFFFFF" d="M172.411,43.214l2.754-0.142c0,0-0.01,1.049-1.219,1.147C172.471,44.338,172.411,43.214,172.411,43.214
				L172.411,43.214z"/>
			<path fill="#F1A391" d="M156.833,64.875c-0.15-0.436,1.967-0.779,2.082-1.219c0.113-0.44-2.672-0.484-2.77-0.871
				c-0.182-0.713,3.053-0.139,2.99-0.472c-0.062-0.334-3.369-1.09-3.01-1.661c0.361-0.57,3.346,1.142,3.439,0.754
				c0.09-0.389-2.922-1.342-2.865-2.192c0.031-0.455,4.943,2.284,5.514,2.039c0.572-0.245-0.605-2.386-0.15-2.701
				c0.455-0.316,1.744,4.347,2.057,4.505c0.312,0.155,6.947,3.973,9.309,4.584c0.291-0.792,2.371-4.984,2.625-5.733
				c1.324,0.949,2.863,1.162,4.23,2.027c-1.002,2.483-4.432,8.595-5.125,8.904c-2.107,0.943-10.225-5.837-11.846-6.999
				c-1.623-1.162-2.555-0.791-3.654-1.159C158.561,64.312,156.983,65.31,156.833,64.875L156.833,64.875z"/>
			<path fill="#D0A67E" d="M180.917,64.603c0,0,2.873-6.368,3.309-8.839c0.438-2.471-1.684-5.573-3.902-5.373
				c-2.221,0.2-5.551,11.193-5.551,11.193L180.917,64.603L180.917,64.603z"/>
		</g>
	</g>
</g>
</svg>
